999
FreeCAD v1.1 20260325 (Git shallow)
  0
SECTION
  2
HEADER
  9
$ACADVER
  1
AC1014
  9
$ACADMAINTVER
 70
     9
  9
$DWGCODEPAGE
  3
ANSI_1252
  9
$TEXTSTYLE
  7
STANDARD
  9
$DIMSTYLE
  2
STANDARD
  9
$DIMTXSTY
  7
STANDARD
  9
$CMLSTYLE
  2
STANDARD
  9
$LUNITS
 70
2
  9
$INSUNITS
 70
4
  9
$PEXTMAX
 10
50
 20
50
 30
50
  9
$PEXTMIN
 10
0
 20
0
 30
0
  9
$HANDSEED
  5
FFFF
  0
ENDSEC
  0
SECTION
  2
CLASSES
  0
CLASS
  1
ACDBDICTIONARYWDFLT
  2
AcDbDictionaryWithDefault
  3
ObjectDBX Classes
 90
        0
280
     0
281
     0
  0
CLASS
  1
XRECORD
  2
AcDbXrecord
  3
ObjectDBX Classes
 90
        0
280
     0
281
     0
  0
CLASS
  1
LWPOLYLINE
  2
AcDbPolyline
  3
ObjectDBX Classes
 90
        0
280
     0
281
     1
  0
ENDSEC
  0
SECTION
  2
TABLES
  0
TABLE
  2
VPORT
  5
20
330
0
100
AcDbSymbolTable
 70
     1
  0
VPORT
  5
21
330
20
100
AcDbSymbolTableRecord
100
AcDbViewportTableRecord
  2
*ACTIVE
 70
     0
  0
ENDTAB
  0
TABLE
  2
LTYPE
  5
22
330
0
100
AcDbSymbolTable
 70
     1
  0
LTYPE
  5
23
330
21
100
AcDbSymbolTableRecord
100
AcDbLinetypeTableRecord
  2
BYBLOCK
 70
     0
  3

 72
    65
 73
     0
 40
0.0
  0
LTYPE
  5
24
330
21
100
AcDbSymbolTableRecord
100
AcDbLinetypeTableRecord
  2
BYLAYER
 70
     0
  3

 72
    65
 73
     0
 40
0.0
  0
LTYPE
  5
25
330
21
100
AcDbSymbolTableRecord
100
AcDbLinetypeTableRecord
  2
CONTINUOUS
 70
     0
  3
Solid line
 72
    65
 73
     0
 40
0.0
  0
ENDTAB
  0
TABLE
  2
LAYER
  5
A68
330
0
100
AcDbSymbolTable
 70
9
  0
LAYER
  5
A69
330
A68
100
AcDbSymbolTableRecord
100
AcDbLayerTableRecord
  2
0
 70
   0
 62
   7
  6
CONTINUOUS
  0
LAYER
  5
A6A
330
A68
100
AcDbSymbolTableRecord
100
AcDbLayerTableRecord
  2
ProjItem
 70
    0
 62
    7
  6
CONTINUOUS
  0
LAYER
  5
A6B
330
A68
100
AcDbSymbolTableRecord
100
AcDbLayerTableRecord
  2
ProjItem001
 70
    0
 62
    7
  6
CONTINUOUS
  0
LAYER
  5
A6C
330
A68
100
AcDbSymbolTableRecord
100
AcDbLayerTableRecord
  2
DimExtent
 70
    0
 62
    7
  6
CONTINUOUS
  0
LAYER
  5
A6D
330
A68
100
AcDbSymbolTableRecord
100
AcDbLayerTableRecord
  2
DimExtent001
 70
    0
 62
    7
  6
CONTINUOUS
  0
LAYER
  5
A6E
330
A68
100
AcDbSymbolTableRecord
100
AcDbLayerTableRecord
  2
DimExtent002
 70
    0
 62
    7
  6
CONTINUOUS
  0
LAYER
  5
A6F
330
A68
100
AcDbSymbolTableRecord
100
AcDbLayerTableRecord
  2
DimExtent003
 70
    0
 62
    7
  6
CONTINUOUS
  0
LAYER
  5
A70
330
A68
100
AcDbSymbolTableRecord
100
AcDbLayerTableRecord
  2
Section
 70
    0
 62
    7
  6
CONTINUOUS
  0
LAYER
  5
A71
330
A68
100
AcDbSymbolTableRecord
100
AcDbLayerTableRecord
  2
IsoThumb
 70
    0
 62
    7
  6
CONTINUOUS
  0
ENDTAB
  0
TABLE
  2
STYLE
  5
70
330
0
100
AcDbSymbolTable
 70
     2
  0
STYLE
  5
71
330
70
100
AcDbSymbolTableRecord
100
AcDbTextStyleTableRecord
  2
STANDARD
 70
     0
 40
0.0
 41
1.0
 50
0.0
 71
     0
 42
2.5
  3
arial.ttf
  4

  0
STYLE
  5
72
330
70
100
AcDbSymbolTableRecord
100
AcDbTextStyleTableRecord
  2
ANNOTATIVE
 70
     0
 40
0.0
 41
1.0
 50
0.0
 71
     0
 42
2.5
  3
arial.ttf
  4

  0
ENDTAB
  0
TABLE
  2
VIEW
  5
73
330
0
100
AcDbSymbolTable
 70
     0
  0
ENDTAB
  0
TABLE
  2
UCS
  5
74
330
0
100
AcDbSymbolTable
 70
     0
  0
ENDTAB
  0
TABLE
  2
APPID
  5
75
330
0
100
AcDbSymbolTable
 70
     2
  0
APPID
  5
76
330
75
100
AcDbSymbolTableRecord
100
AcDbRegAppTableRecord
  2
ACAD
 70
     0
  0
APPID
  5
77
330
75
100
AcDbSymbolTableRecord
100
AcDbRegAppTableRecord
  2
ACADANNOTATIVE
 70
     0
  0
ENDTAB
  0
TABLE
  2
DIMSTYLE
  5
78
330
0
100
AcDbSymbolTable
 70
     2
  0
DIMSTYLE
105
79
330
78
100
AcDbSymbolTableRecord
100
AcDbDimStyleTableRecord
  2
STANDARD
 70
     0
  3

  4

  5

  6

  7

 40
0.0
 41
2.5
 42
0.625
 43
3.75
 44
1.25
 45
0.0
 46
0.0
 47
0.0
 48
0.0
140
2.5
141
2.5
142
0.0
143
0.03937007874016
144
1.0
145
0.0
146
1.0
147
0.625
 71
     0
 72
     0
 73
     0
 74
     0
 75
     0
 76
     0
 77
     1
 78
     8
170
     0
171
     3
172
     1
173
     0
174
     0
175
     0
176
     0
177
     0
178
     0
270
     2
271
     2
272
     2
273
     2
274
     3
340
71
275
     0
280
     0
281
     0
282
     0
283
     0
284
     8
285
     0
286
     0
287
     3
288
     0
  0
ENDTAB
  0
TABLE
  2
BLOCK_RECORD
  5
A01
330
0
100
AcDbSymbolTable
  70
5
  0
BLOCK_RECORD
  5
A02
330
A01
100
AcDbSymbolTableRecord
100
AcDbBlockTableRecord
  2
*MODEL_SPACE
  0
BLOCK_RECORD
  5
A03
330
A01
100
AcDbSymbolTableRecord
100
AcDbBlockTableRecord
  2
*PAPER_SPACE
  0
BLOCK_RECORD
  5
A13
330
A01
100
AcDbSymbolTableRecord
100
AcDbBlockTableRecord
  2
*DimExtent
  0
BLOCK_RECORD
  5
A1D
330
A01
100
AcDbSymbolTableRecord
100
AcDbBlockTableRecord
  2
*DimExtent001
  0
BLOCK_RECORD
  5
A27
330
A01
100
AcDbSymbolTableRecord
100
AcDbBlockTableRecord
  2
*DimExtent002
  0
BLOCK_RECORD
  5
A31
330
A01
100
AcDbSymbolTableRecord
100
AcDbBlockTableRecord
  2
*DimExtent003
  0
ENDTAB
  0
ENDSEC
  0
SECTION
  2
BLOCKS
  0
BLOCK
  5
A04
330
A02
100
AcDbEntity
  8
0
100
AcDbBlockBegin
  2
*MODEL_SPACE
 70
   0
 10
0
 20
0
 30
0
  3
*MODEL_SPACE
  1
 
  0
ENDBLK
  5
A05
330
A02
100
AcDbEntity
  8
0
100
AcDbBlockEnd
  0
BLOCK
  5
A06
330
A03
100
AcDbEntity
 67
1
  8
0
100
AcDbBlockBegin
  2
*PAPER_SPACE
 70
   0
 10
0
 20
0
 30
0
  3
*PAPER_SPACE
  1
 
  0
ENDBLK
  5
A07
330
A03
100
AcDbEntity
 67
    1
  8
0
100
AcDbBlockEnd
  0
BLOCK
  5
A14
330
A13
100
AcDbEntity
  8
DimExtent
100
AcDbBlockBegin
  2
*DimExtent
 70
   1
 10
0
 20
0
 30
0
  3
*DimExtent
  1
 
  0
LINE
  5
A15
330
A13
100
AcDbEntity
  8
DimExtent
100
AcDbLine
 10
193.5
 20
90
 30
0
 11
193.5
 21
100
 31
0
  0
LINE
  5
A16
330
A13
100
AcDbEntity
  8
DimExtent
100
AcDbLine
 10
103.5
 20
90
 30
0
 11
103.5
 21
100
 31
0
  0
LINE
  5
A17
330
A13
100
AcDbEntity
  8
DimExtent
100
AcDbLine
 10
103.5
 20
100
 30
0
 11
193.5
 21
100
 31
0
  0
TEXT
  5
A18
330
A13
100
AcDbEntity
  8
DimExtent
100
AcDbText
 10
148.5
 20
105
 30
0
 40
3.5
  1
60
  7
STANDARD
 72
1
 11
148.5
 21
100
 31
0
100
AcDbText
  0
SOLID
  5
A19
330
A13
100
AcDbEntity
  8
0
 62
     0
100
AcDbTrace
 10
98.5
 20
100.417
 30
0
 11
98.5
 21
99.5833
 31
0
 12
103.5
 22
100
 32
0
 13
103.5
 23
100
 33
0
  0
SOLID
  5
A1A
330
A13
100
AcDbEntity
  8
0
 62
     0
100
AcDbTrace
 10
198.5
 20
100.417
 30
0
 11
198.5
 21
99.5833
 31
0
 12
193.5
 22
100
 32
0
 13
193.5
 23
100
 33
0
  0
ENDBLK
  5
A1B
330
A13
100
AcDbEntity
  8
DimExtent
100
AcDbBlockEnd
  0
BLOCK
  5
A1E
330
A1D
100
AcDbEntity
  8
DimExtent001
100
AcDbBlockBegin
  2
*DimExtent001
 70
   1
 10
0
 20
0
 30
0
  3
*DimExtent001
  1
 
  0
LINE
  5
A1F
330
A1D
100
AcDbEntity
  8
DimExtent001
100
AcDbLine
 10
103.5
 20
90
 30
0
 11
153.5
 21
90
 31
0
  0
LINE
  5
A20
330
A1D
100
AcDbEntity
  8
DimExtent001
100
AcDbLine
 10
103.5
 20
120
 30
0
 11
153.5
 21
120
 31
0
  0
LINE
  5
A21
330
A1D
100
AcDbEntity
  8
DimExtent001
100
AcDbLine
 10
153.5
 20
120
 30
0
 11
153.5
 21
90
 31
0
  0
TEXT
  5
A22
330
A1D
100
AcDbEntity
  8
DimExtent001
100
AcDbText
 10
148.5
 20
105
 30
0
 40
3.5
  1
20
  7
STANDARD
 72
1
 11
153.5
 21
105
 31
0
100
AcDbText
  0
SOLID
  5
A23
330
A1D
100
AcDbEntity
  8
0
 62
     0
100
AcDbTrace
 10
153.917
 20
125
 30
0
 11
153.083
 21
125
 31
0
 12
153.5
 22
120
 32
0
 13
153.5
 23
120
 33
0
  0
SOLID
  5
A24
330
A1D
100
AcDbEntity
  8
0
 62
     0
100
AcDbTrace
 10
153.917
 20
85
 30
0
 11
153.083
 21
85
 31
0
 12
153.5
 22
90
 32
0
 13
153.5
 23
90
 33
0
  0
ENDBLK
  5
A25
330
A1D
100
AcDbEntity
  8
DimExtent001
100
AcDbBlockEnd
  0
BLOCK
  5
A28
330
A27
100
AcDbEntity
  8
DimExtent002
100
AcDbBlockBegin
  2
*DimExtent002
 70
   1
 10
0
 20
0
 30
0
  3
*DimExtent002
  1
 
  0
LINE
  5
A29
330
A27
100
AcDbEntity
  8
DimExtent002
100
AcDbLine
 10
193.5
 20
135
 30
0
 11
193.5
 21
160
 31
0
  0
LINE
  5
A2A
330
A27
100
AcDbEntity
  8
DimExtent002
100
AcDbLine
 10
103.5
 20
135
 30
0
 11
103.5
 21
160
 31
0
  0
LINE
  5
A2B
330
A27
100
AcDbEntity
  8
DimExtent002
100
AcDbLine
 10
103.5
 20
160
 30
0
 11
193.5
 21
160
 31
0
  0
TEXT
  5
A2C
330
A27
100
AcDbEntity
  8
DimExtent002
100
AcDbText
 10
148.5
 20
165
 30
0
 40
3.5
  1
60
  7
STANDARD
 72
1
 11
148.5
 21
160
 31
0
100
AcDbText
  0
SOLID
  5
A2D
330
A27
100
AcDbEntity
  8
0
 62
     0
100
AcDbTrace
 10
98.5
 20
160.417
 30
0
 11
98.5
 21
159.583
 31
0
 12
103.5
 22
160
 32
0
 13
103.5
 23
160
 33
0
  0
SOLID
  5
A2E
330
A27
100
AcDbEntity
  8
0
 62
     0
100
AcDbTrace
 10
198.5
 20
160.417
 30
0
 11
198.5
 21
159.583
 31
0
 12
193.5
 22
160
 32
0
 13
193.5
 23
160
 33
0
  0
ENDBLK
  5
A2F
330
A27
100
AcDbEntity
  8
DimExtent002
100
AcDbBlockEnd
  0
BLOCK
  5
A32
330
A31
100
AcDbEntity
  8
DimExtent003
100
AcDbBlockBegin
  2
*DimExtent003
 70
   1
 10
0
 20
0
 30
0
  3
*DimExtent003
  1
 
  0
LINE
  5
A33
330
A31
100
AcDbEntity
  8
DimExtent003
100
AcDbLine
 10
103.5
 20
135
 30
0
 11
153.5
 21
135
 31
0
  0
LINE
  5
A34
330
A31
100
AcDbEntity
  8
DimExtent003
100
AcDbLine
 10
103.5
 20
195
 30
0
 11
153.5
 21
195
 31
0
  0
LINE
  5
A35
330
A31
100
AcDbEntity
  8
DimExtent003
100
AcDbLine
 10
153.5
 20
195
 30
0
 11
153.5
 21
135
 31
0
  0
TEXT
  5
A36
330
A31
100
AcDbEntity
  8
DimExtent003
100
AcDbText
 10
148.5
 20
165
 30
0
 40
3.5
  1
40
  7
STANDARD
 72
1
 11
153.5
 21
165
 31
0
100
AcDbText
  0
SOLID
  5
A37
330
A31
100
AcDbEntity
  8
0
 62
     0
100
AcDbTrace
 10
153.917
 20
200
 30
0
 11
153.083
 21
200
 31
0
 12
153.5
 22
195
 32
0
 13
153.5
 23
195
 33
0
  0
SOLID
  5
A38
330
A31
100
AcDbEntity
  8
0
 62
     0
100
AcDbTrace
 10
153.917
 20
130
 30
0
 11
153.083
 21
130
 31
0
 12
153.5
 22
135
 32
0
 13
153.5
 23
135
 33
0
  0
ENDBLK
  5
A39
330
A31
100
AcDbEntity
  8
DimExtent003
100
AcDbBlockEnd
  0
ENDSEC
  0
SECTION
  2
ENTITIES
  0
LINE
  5
A08
330
A02
100
AcDbEntity
  8
ProjItem
100
AcDbLine
 10
103.500000000
 20
90.000000000
 30
0.000000000
 11
103.500000000
 21
120.000000000
 31
0.000000000
  0
LINE
  5
A09
330
A02
100
AcDbEntity
  8
ProjItem
100
AcDbLine
 10
103.500000000
 20
90.000000000
 30
0.000000000
 11
193.500000000
 21
90.000000000
 31
0.000000000
  0
LINE
  5
A0A
330
A02
100
AcDbEntity
  8
ProjItem
100
AcDbLine
 10
193.500000000
 20
90.000000000
 30
0.000000000
 11
193.500000000
 21
120.000000000
 31
0.000000000
  0
LINE
  5
A0B
330
A02
100
AcDbEntity
  8
ProjItem
100
AcDbLine
 10
103.500000000
 20
120.000000000
 30
0.000000000
 11
193.500000000
 21
120.000000000
 31
0.000000000
  0
LINE
  5
A0C
330
A02
100
AcDbEntity
  8
ProjItem001
100
AcDbLine
 10
103.500000000
 20
135.000000000
 30
0.000000000
 11
103.500000000
 21
195.000000000
 31
0.000000000
  0
LINE
  5
A0D
330
A02
100
AcDbEntity
  8
ProjItem001
100
AcDbLine
 10
103.500000000
 20
135.000000000
 30
0.000000000
 11
193.500000000
 21
135.000000000
 31
0.000000000
  0
LINE
  5
A0E
330
A02
100
AcDbEntity
  8
ProjItem001
100
AcDbLine
 10
103.500000000
 20
195.000000000
 30
0.000000000
 11
193.500000000
 21
195.000000000
 31
0.000000000
  0
LINE
  5
A0F
330
A02
100
AcDbEntity
  8
ProjItem001
100
AcDbLine
 10
193.500000000
 20
135.000000000
 30
0.000000000
 11
193.500000000
 21
195.000000000
 31
0.000000000
  0
CIRCLE
  5
A10
330
A02
100
AcDbEntity
  8
ProjItem001
100
AcDbCircle
 10
148.500000000
 20
165.000000000
 30
0.000000000
 40
15.000000000
  0
CIRCLE
  5
A11
330
A02
100
AcDbEntity
  8
ProjItem001
100
AcDbCircle
 10
148.500000000
 20
165.000000000
 30
0.000000000
 40
7.500000000
  0
DIMENSION
  5
A12
330
A02
100
AcDbEntity
  8
DimExtent
100
AcDbDimension
  2
*DimExtent
 10
148.500000000
 20
100.000000000
 30
0.000000000
 11
148.500000000
 21
105.000000000
 31
0.000000000
 70
32
  1
60
  3
STANDARD
100
AcDbAlignedDimension
 13
103.500000000
 23
90.000000000
 33
0.000000000
 14
193.500000000
 24
90.000000000
 34
0.000000000
100
AcDbRotatedDimension
  0
DIMENSION
  5
A1C
330
A02
100
AcDbEntity
  8
DimExtent001
100
AcDbDimension
  2
*DimExtent001
 10
153.500000000
 20
105.000000000
 30
0.000000000
 11
148.500000000
 21
105.000000000
 31
0.000000000
 70
32
  1
20
  3
STANDARD
100
AcDbAlignedDimension
 13
103.500000000
 23
120.000000000
 33
0.000000000
 14
103.500000000
 24
90.000000000
 34
0.000000000
 50
90
100
AcDbRotatedDimension
  0
DIMENSION
  5
A26
330
A02
100
AcDbEntity
  8
DimExtent002
100
AcDbDimension
  2
*DimExtent002
 10
148.500000000
 20
160.000000000
 30
0.000000000
 11
148.500000000
 21
165.000000000
 31
0.000000000
 70
32
  1
60
  3
STANDARD
100
AcDbAlignedDimension
 13
103.500000000
 23
135.000000000
 33
0.000000000
 14
193.500000000
 24
135.000000000
 34
0.000000000
100
AcDbRotatedDimension
  0
DIMENSION
  5
A30
330
A02
100
AcDbEntity
  8
DimExtent003
100
AcDbDimension
  2
*DimExtent003
 10
153.500000000
 20
165.000000000
 30
0.000000000
 11
148.500000000
 21
165.000000000
 31
0.000000000
 70
32
  1
40
  3
STANDARD
100
AcDbAlignedDimension
 13
103.500000000
 23
195.000000000
 33
0.000000000
 14
103.500000000
 24
135.000000000
 34
0.000000000
 50
90
100
AcDbRotatedDimension
  0
LINE
  5
A3A
330
A02
100
AcDbEntity
  8
Section
100
AcDbLine
 10
103.500000000
 20
72.000000000
 30
0.000000000
 11
103.500000000
 21
42.000000000
 31
0.000000000
  0
LINE
  5
A3B
330
A02
100
AcDbEntity
  8
Section
100
AcDbLine
 10
133.500000000
 20
42.000000000
 30
0.000000000
 11
103.500000000
 21
42.000000000
 31
0.000000000
  0
SPLINE
  5
A3C
330
A02
100
AcDbEntity
  8
Section
100
AcDbSpline
210
0
220
0
230
1
 70
8
 71
1
 72
17
 73
15
 74
0
 40
3.141592654
 40
3.141592654
 40
3.365992129
 40
3.590391604
 40
3.814791079
 40
4.039190555
 40
4.263590030
 40
4.487989505
 40
4.712388980
 40
4.936788456
 40
5.161187931
 40
5.385587406
 40
5.609986881
 40
5.834386357
 40
6.058785832
 40
6.283185307
 40
6.283185307
 10
133.500000000
 20
42.000000000
 30
0.000000000
 10
133.876081317
 20
42.000000000
 30
0.000000000
 10
134.985466981
 20
42.000000000
 30
0.000000000
 10
136.772527763
 20
42.000000000
 30
0.000000000
 10
139.147652972
 20
42.000000000
 30
0.000000000
 10
141.991743913
 20
42.000000000
 30
0.000000000
 10
145.162185991
 20
42.000000000
 30
0.000000000
 10
148.500000000
 20
42.000000000
 30
0.000000000
 10
151.837814009
 20
42.000000000
 30
0.000000000
 10
155.008256087
 20
42.000000000
 30
0.000000000
 10
157.852347028
 20
42.000000000
 30
0.000000000
 10
160.227472237
 20
42.000000000
 30
0.000000000
 10
162.014533019
 20
42.000000000
 30
0.000000000
 10
163.123918683
 20
42.000000000
 30
0.000000000
 10
163.500000000
 20
42.000000000
 30
0.000000000
  0
LINE
  5
A3D
330
A02
100
AcDbEntity
  8
Section
100
AcDbLine
 10
193.500000000
 20
42.000000000
 30
0.000000000
 11
163.500000000
 21
42.000000000
 31
0.000000000
  0
LINE
  5
A3E
330
A02
100
AcDbEntity
  8
Section
100
AcDbLine
 10
141.000000000
 20
72.000000000
 30
0.000000000
 11
103.500000000
 21
72.000000000
 31
0.000000000
  0
LINE
  5
A3F
330
A02
100
AcDbEntity
  8
Section
100
AcDbLine
 10
141.000000000
 20
51.000000000
 30
0.000000000
 11
141.000000000
 21
72.000000000
 31
0.000000000
  0
LINE
  5
A40
330
A02
100
AcDbEntity
  8
Section
100
AcDbLine
 10
141.000000000
 20
51.000000000
 30
0.000000000
 11
133.500000000
 21
51.000000000
 31
0.000000000
  0
LINE
  5
A41
330
A02
100
AcDbEntity
  8
Section
100
AcDbLine
 10
133.500000000
 20
42.000000000
 30
0.000000000
 11
133.500000000
 21
51.000000000
 31
0.000000000
  0
SPLINE
  5
A42
330
A02
100
AcDbEntity
  8
Section
100
AcDbSpline
210
0
220
0
230
1
 70
8
 71
1
 72
17
 73
15
 74
0
 40
3.141592654
 40
3.141592654
 40
3.365992129
 40
3.590391604
 40
3.814791079
 40
4.039190555
 40
4.263590030
 40
4.487989505
 40
4.712388980
 40
4.936788456
 40
5.161187931
 40
5.385587406
 40
5.609986881
 40
5.834386357
 40
6.058785832
 40
6.283185307
 40
6.283185307
 10
141.000000000
 20
72.000000000
 30
0.000000000
 10
141.188040659
 20
72.000000000
 30
0.000000000
 10
141.742733491
 20
72.000000000
 30
0.000000000
 10
142.636263881
 20
72.000000000
 30
0.000000000
 10
143.823826486
 20
72.000000000
 30
0.000000000
 10
145.245871957
 20
72.000000000
 30
0.000000000
 10
146.831092995
 20
72.000000000
 30
0.000000000
 10
148.500000000
 20
72.000000000
 30
0.000000000
 10
150.168907005
 20
72.000000000
 30
0.000000000
 10
151.754128043
 20
72.000000000
 30
0.000000000
 10
153.176173514
 20
72.000000000
 30
0.000000000
 10
154.363736119
 20
72.000000000
 30
0.000000000
 10
155.257266509
 20
72.000000000
 30
0.000000000
 10
155.811959341
 20
72.000000000
 30
0.000000000
 10
156.000000000
 20
72.000000000
 30
0.000000000
  0
LINE
  5
A43
330
A02
100
AcDbEntity
  8
Section
100
AcDbLine
 10
193.500000000
 20
72.000000000
 30
0.000000000
 11
156.000000000
 21
72.000000000
 31
0.000000000
  0
LINE
  5
A44
330
A02
100
AcDbEntity
  8
Section
100
AcDbLine
 10
163.500000000
 20
51.000000000
 30
0.000000000
 11
163.500000000
 21
42.000000000
 31
0.000000000
  0
LINE
  5
A45
330
A02
100
AcDbEntity
  8
Section
100
AcDbLine
 10
163.500000000
 20
51.000000000
 30
0.000000000
 11
156.000000000
 21
51.000000000
 31
0.000000000
  0
LINE
  5
A46
330
A02
100
AcDbEntity
  8
Section
100
AcDbLine
 10
156.000000000
 20
72.000000000
 30
0.000000000
 11
156.000000000
 21
51.000000000
 31
0.000000000
  0
LINE
  5
A47
330
A02
100
AcDbEntity
  8
Section
100
AcDbLine
 10
193.500000000
 20
72.000000000
 30
0.000000000
 11
193.500000000
 21
42.000000000
 31
0.000000000
  0
SPLINE
  5
A48
330
A02
100
AcDbEntity
  8
Section
100
AcDbSpline
210
0
220
0
230
1
 70
8
 71
1
 72
17
 73
15
 74
0
 40
0.000000000
 40
0.000000000
 40
0.224399475
 40
0.448798951
 40
0.673198426
 40
0.897597901
 40
1.121997376
 40
1.346396852
 40
1.570796327
 40
1.795195802
 40
2.019595277
 40
2.243994753
 40
2.468394228
 40
2.692793703
 40
2.917193178
 40
3.141592654
 40
3.141592654
 10
156.000000000
 20
51.000000000
 30
0.000000000
 10
155.811959341
 20
51.000000000
 30
0.000000000
 10
155.257266509
 20
51.000000000
 30
0.000000000
 10
154.363736119
 20
51.000000000
 30
0.000000000
 10
153.176173514
 20
51.000000000
 30
0.000000000
 10
151.754128043
 20
51.000000000
 30
0.000000000
 10
150.168907005
 20
51.000000000
 30
0.000000000
 10
148.500000000
 20
51.000000000
 30
0.000000000
 10
146.831092995
 20
51.000000000
 30
0.000000000
 10
145.245871957
 20
51.000000000
 30
0.000000000
 10
143.823826486
 20
51.000000000
 30
0.000000000
 10
142.636263881
 20
51.000000000
 30
0.000000000
 10
141.742733491
 20
51.000000000
 30
0.000000000
 10
141.188040659
 20
51.000000000
 30
0.000000000
 10
141.000000000
 20
51.000000000
 30
0.000000000
  0
LINE
  5
A49
330
A02
100
AcDbEntity
  8
Section
100
AcDbLine
 10
103.500000000
 20
72.000000000
 30
0.000000000
 11
103.500000000
 21
42.000000000
 31
0.000000000
  0
LINE
  5
A4A
330
A02
100
AcDbEntity
  8
Section
100
AcDbLine
 10
133.500000000
 20
42.000000000
 30
0.000000000
 11
103.500000000
 21
42.000000000
 31
0.000000000
  0
SPLINE
  5
A4B
330
A02
100
AcDbEntity
  8
Section
100
AcDbSpline
210
0
220
0
230
1
 70
8
 71
1
 72
17
 73
15
 74
0
 40
3.141592654
 40
3.141592654
 40
3.365992129
 40
3.590391604
 40
3.814791079
 40
4.039190555
 40
4.263590030
 40
4.487989505
 40
4.712388980
 40
4.936788456
 40
5.161187931
 40
5.385587406
 40
5.609986881
 40
5.834386357
 40
6.058785832
 40
6.283185307
 40
6.283185307
 10
133.500000000
 20
42.000000000
 30
0.000000000
 10
133.876081317
 20
42.000000000
 30
0.000000000
 10
134.985466981
 20
42.000000000
 30
0.000000000
 10
136.772527763
 20
42.000000000
 30
0.000000000
 10
139.147652972
 20
42.000000000
 30
0.000000000
 10
141.991743913
 20
42.000000000
 30
0.000000000
 10
145.162185991
 20
42.000000000
 30
0.000000000
 10
148.500000000
 20
42.000000000
 30
0.000000000
 10
151.837814009
 20
42.000000000
 30
0.000000000
 10
155.008256087
 20
42.000000000
 30
0.000000000
 10
157.852347028
 20
42.000000000
 30
0.000000000
 10
160.227472237
 20
42.000000000
 30
0.000000000
 10
162.014533019
 20
42.000000000
 30
0.000000000
 10
163.123918683
 20
42.000000000
 30
0.000000000
 10
163.500000000
 20
42.000000000
 30
0.000000000
  0
LINE
  5
A4C
330
A02
100
AcDbEntity
  8
Section
100
AcDbLine
 10
193.500000000
 20
42.000000000
 30
0.000000000
 11
163.500000000
 21
42.000000000
 31
0.000000000
  0
LINE
  5
A4D
330
A02
100
AcDbEntity
  8
Section
100
AcDbLine
 10
141.000000000
 20
72.000000000
 30
0.000000000
 11
103.500000000
 21
72.000000000
 31
0.000000000
  0
LINE
  5
A4E
330
A02
100
AcDbEntity
  8
Section
100
AcDbLine
 10
141.000000000
 20
51.000000000
 30
0.000000000
 11
141.000000000
 21
72.000000000
 31
0.000000000
  0
LINE
  5
A4F
330
A02
100
AcDbEntity
  8
Section
100
AcDbLine
 10
141.000000000
 20
51.000000000
 30
0.000000000
 11
133.500000000
 21
51.000000000
 31
0.000000000
  0
LINE
  5
A50
330
A02
100
AcDbEntity
  8
Section
100
AcDbLine
 10
133.500000000
 20
42.000000000
 30
0.000000000
 11
133.500000000
 21
51.000000000
 31
0.000000000
  0
SPLINE
  5
A51
330
A02
100
AcDbEntity
  8
Section
100
AcDbSpline
210
0
220
0
230
1
 70
8
 71
1
 72
17
 73
15
 74
0
 40
3.141592654
 40
3.141592654
 40
3.365992129
 40
3.590391604
 40
3.814791079
 40
4.039190555
 40
4.263590030
 40
4.487989505
 40
4.712388980
 40
4.936788456
 40
5.161187931
 40
5.385587406
 40
5.609986881
 40
5.834386357
 40
6.058785832
 40
6.283185307
 40
6.283185307
 10
141.000000000
 20
72.000000000
 30
0.000000000
 10
141.188040659
 20
72.000000000
 30
0.000000000
 10
141.742733491
 20
72.000000000
 30
0.000000000
 10
142.636263881
 20
72.000000000
 30
0.000000000
 10
143.823826486
 20
72.000000000
 30
0.000000000
 10
145.245871957
 20
72.000000000
 30
0.000000000
 10
146.831092995
 20
72.000000000
 30
0.000000000
 10
148.500000000
 20
72.000000000
 30
0.000000000
 10
150.168907005
 20
72.000000000
 30
0.000000000
 10
151.754128043
 20
72.000000000
 30
0.000000000
 10
153.176173514
 20
72.000000000
 30
0.000000000
 10
154.363736119
 20
72.000000000
 30
0.000000000
 10
155.257266509
 20
72.000000000
 30
0.000000000
 10
155.811959341
 20
72.000000000
 30
0.000000000
 10
156.000000000
 20
72.000000000
 30
0.000000000
  0
LINE
  5
A52
330
A02
100
AcDbEntity
  8
Section
100
AcDbLine
 10
193.500000000
 20
72.000000000
 30
0.000000000
 11
156.000000000
 21
72.000000000
 31
0.000000000
  0
LINE
  5
A53
330
A02
100
AcDbEntity
  8
Section
100
AcDbLine
 10
163.500000000
 20
51.000000000
 30
0.000000000
 11
163.500000000
 21
42.000000000
 31
0.000000000
  0
LINE
  5
A54
330
A02
100
AcDbEntity
  8
Section
100
AcDbLine
 10
163.500000000
 20
51.000000000
 30
0.000000000
 11
156.000000000
 21
51.000000000
 31
0.000000000
  0
LINE
  5
A55
330
A02
100
AcDbEntity
  8
Section
100
AcDbLine
 10
156.000000000
 20
72.000000000
 30
0.000000000
 11
156.000000000
 21
51.000000000
 31
0.000000000
  0
LINE
  5
A56
330
A02
100
AcDbEntity
  8
Section
100
AcDbLine
 10
193.500000000
 20
72.000000000
 30
0.000000000
 11
193.500000000
 21
42.000000000
 31
0.000000000
  0
SPLINE
  5
A57
330
A02
100
AcDbEntity
  8
Section
100
AcDbSpline
210
0
220
0
230
1
 70
8
 71
1
 72
17
 73
15
 74
0
 40
0.000000000
 40
0.000000000
 40
0.224399475
 40
0.448798951
 40
0.673198426
 40
0.897597901
 40
1.121997376
 40
1.346396852
 40
1.570796327
 40
1.795195802
 40
2.019595277
 40
2.243994753
 40
2.468394228
 40
2.692793703
 40
2.917193178
 40
3.141592654
 40
3.141592654
 10
156.000000000
 20
51.000000000
 30
0.000000000
 10
155.811959341
 20
51.000000000
 30
0.000000000
 10
155.257266509
 20
51.000000000
 30
0.000000000
 10
154.363736119
 20
51.000000000
 30
0.000000000
 10
153.176173514
 20
51.000000000
 30
0.000000000
 10
151.754128043
 20
51.000000000
 30
0.000000000
 10
150.168907005
 20
51.000000000
 30
0.000000000
 10
148.500000000
 20
51.000000000
 30
0.000000000
 10
146.831092995
 20
51.000000000
 30
0.000000000
 10
145.245871957
 20
51.000000000
 30
0.000000000
 10
143.823826486
 20
51.000000000
 30
0.000000000
 10
142.636263881
 20
51.000000000
 30
0.000000000
 10
141.742733491
 20
51.000000000
 30
0.000000000
 10
141.188040659
 20
51.000000000
 30
0.000000000
 10
141.000000000
 20
51.000000000
 30
0.000000000
  0
LINE
  5
A58
330
A02
100
AcDbEntity
  8
IsoThumb
100
AcDbLine
 10
251.185258003
 20
154.000000000
 30
0.000000000
 11
227.926290016
 21
167.428571429
 31
0.000000000
  0
LINE
  5
A59
330
A02
100
AcDbEntity
  8
IsoThumb
100
AcDbLine
 10
227.926290016
 20
180.857142857
 30
0.000000000
 11
227.926290016
 21
167.428571429
 31
0.000000000
  0
LINE
  5
A5A
330
A02
100
AcDbEntity
  8
IsoThumb
100
AcDbLine
 10
286.073709984
 20
187.571428571
 30
0.000000000
 11
286.073709984
 21
174.142857143
 31
0.000000000
  0
LINE
  5
A5B
330
A02
100
AcDbEntity
  8
IsoThumb
100
AcDbLine
 10
251.185258003
 20
154.000000000
 30
0.000000000
 11
286.073709984
 21
174.142857143
 31
0.000000000
  0
LINE
  5
A5C
330
A02
100
AcDbEntity
  8
IsoThumb
100
AcDbLine
 10
227.926290016
 20
167.428571429
 30
0.000000000
 11
262.814741997
 21
187.571428571
 31
0.000000000
  0
LINE
  5
A5D
330
A02
100
AcDbEntity
  8
IsoThumb
100
AcDbLine
 10
286.073709984
 20
174.142857143
 30
0.000000000
 11
262.814741997
 21
187.571428571
 31
0.000000000
  0
ELLIPSE
  5
A5E
330
A02
100
AcDbEntity
  8
IsoThumb
100
AcDbEllipse
 10
257.000000000
 20
170.785714286
 30
0.000000000
 11
-8.223286994
 21
0.000000000
 31
0.000000000
 40
0.577350269
 41
3.926990817
 42
0.000000000
  0
ELLIPSE
  5
A5F
330
A02
100
AcDbEntity
  8
IsoThumb
100
AcDbEllipse
 10
257.000000000
 20
170.785714286
 30
0.000000000
 11
-8.223286994
 21
0.000000000
 31
0.000000000
 40
0.577350269
 41
0.000000000
 42
3.141592654
  0
ELLIPSE
  5
A60
330
A02
100
AcDbEntity
  8
IsoThumb
100
AcDbEllipse
 10
257.000000000
 20
170.785714286
 30
0.000000000
 11
-8.223286994
 21
0.000000000
 31
0.000000000
 40
0.577350269
 41
3.141592654
 42
3.926990817
  0
LINE
  5
A61
330
A02
100
AcDbEntity
  8
IsoThumb
100
AcDbLine
 10
227.926290016
 20
180.857142857
 30
0.000000000
 11
262.814741997
 21
201.000000000
 31
0.000000000
  0
LINE
  5
A62
330
A02
100
AcDbEntity
  8
IsoThumb
100
AcDbLine
 10
262.814741997
 20
201.000000000
 30
0.000000000
 11
262.814741997
 21
187.571428571
 31
0.000000000
  0
LINE
  5
A63
330
A02
100
AcDbEntity
  8
IsoThumb
100
AcDbLine
 10
286.073709984
 20
187.571428571
 30
0.000000000
 11
262.814741997
 21
201.000000000
 31
0.000000000
  0
ELLIPSE
  5
A64
330
A02
100
AcDbEntity
  8
IsoThumb
100
AcDbEllipse
 10
257.000000000
 20
174.814285714
 30
0.000000000
 11
-8.223286994
 21
0.000000000
 31
0.000000000
 40
0.577350269
 41
0.438149031
 42
2.703443623
  0
ELLIPSE
  5
A65
330
A02
100
AcDbEntity
  8
IsoThumb
100
AcDbEllipse
 10
257.000000000
 20
174.814285714
 30
0.000000000
 11
4.111643497
 21
0.000000000
 31
0.000000000
 40
0.577350269
 41
-0.000000000
 42
-6.247822598
  0
ELLIPSE
  5
A66
330
A02
100
AcDbEntity
  8
IsoThumb
100
AcDbEllipse
 10
257.000000000
 20
174.814285714
 30
0.000000000
 11
4.111643497
 21
0.000000000
 31
0.000000000
 40
0.577350269
 41
-3.141592654
 42
-0.000000000
  0
ELLIPSE
  5
A67
330
A02
100
AcDbEntity
  8
IsoThumb
100
AcDbEllipse
 10
257.000000000
 20
174.814285714
 30
0.000000000
 11
4.111643497
 21
0.000000000
 31
0.000000000
 40
0.577350269
 41
-3.176955362
 42
-3.141592654
  0
ENDSEC
  0
SECTION
  2
OBJECTS
  0
DICTIONARY
  5
F000
330
0
100
AcDbDictionary
  3
ACAD_GROUP
350
F001
  0
DICTIONARY
  5
F001
330
F000
100
AcDbDictionary
  0
ENDSEC
  0
EOF